# xmcd
#
# Track frame offsets:
#	150
#	15137
#	28437
#	43812
#	59537
#	71475
#	93312
#	109700
#	124625
#	137700
#	152962
#	167600
#	183912
#	198387
#
# Disc length: 2868
#
# Revision: 3
# Processed by: cddbd v1.5.1PL0 Copyright (c) Steve Scherf et al.
# Submitted via: CDex 1.50beta9
# Normalized: r2:TDELIM( - )
#
DISCID=bc0b320e
DTITLE=Various Artist - Archive Blues
DYEAR=1900
DGENRE=Blues
TTITLE0=Gatemouth Moore - If I Can't Have That Woman
TTITLE1=Floyd Dixon - Mean Mistreatin Blues
TTITLE2=Roy Milton - My Own Careless Love
TTITLE3=Charles Brown - Trouble's My Middle Name
TTITLE4=Little Willie Littlefield - Gonna Hit The Road Blues
TTITLE5=Mel Walker - Got Those City Hall Blues
TTITLE6=Amos Milburn - It's Too Late To Cry Baby
TTITLE7=Pee Wee Crayton - Blues Blues
TTITLE8=Willie Joe Dixon - Goin Home Again Blues
TTITLE9=Eddie Vinson - My Baby's Down And Out
TTITLE10=Sonny Thompson - My Buddy Pete's Blues
TTITLE11=Roy Brown - Why Do I Feel This Way Baby
TTITLE12=Lowell Fulson - I've Got Those Greyhound Blues
TTITLE13=Richard Berry - These Pawnshop Blues
EXTD=
EXTT0=
EXTT1=
EXTT2=
EXTT3=
EXTT4=
EXTT5=
EXTT6=
EXTT7=
EXTT8=
EXTT9=
EXTT10=
EXTT11=
EXTT12=
EXTT13=
PLAYORDER=
